<svg width="24" height="25" viewBox="0 0 24 25" fill="none" xmlns="http://www.w3.org/2000/svg">
<path d="M3.082 14.445C2.553 13.495 2.289 13.019 2.289 12.5C2.289 11.981 2.553 11.506 3.082 10.556L4.43 8.13001L5.856 5.74901C6.415 4.81601 6.694 4.34901 7.143 4.08901C7.593 3.83001 8.136 3.82201 9.223 3.80401L12 3.76001L14.775 3.80401C15.863 3.82201 16.406 3.83001 16.855 4.09001C17.304 4.35001 17.585 4.81601 18.143 5.74901L19.57 8.13001L20.92 10.556C21.448 11.506 21.712 11.981 21.712 12.5C21.712 13.019 21.448 13.494 20.919 14.444L19.57 16.87L18.144 19.251C17.585 20.184 17.306 20.651 16.857 20.911C16.407 21.17 15.864 21.178 14.777 21.196L12 21.24L9.225 21.196C8.137 21.178 7.594 21.17 7.145 20.91C6.696 20.65 6.415 20.184 5.857 19.251L4.43 16.87L3.082 14.445Z" stroke="#333333" stroke-width="1.5"/>
<path d="M12 15.5C13.6569 15.5 15 14.1569 15 12.5C15 10.8431 13.6569 9.5 12 9.5C10.3431 9.5 9 10.8431 9 12.5C9 14.1569 10.3431 15.5 12 15.5Z" stroke="#333333" stroke-width="1.5"/>
</svg>
