<svg width="24" height="25" viewBox="0 0 24 25" fill="none" xmlns="http://www.w3.org/2000/svg">
<path d="M12.0117 3.01001L14.787 3.05396L15.5224 3.07056C15.7473 3.07846 15.9529 3.08978 16.1386 3.1106C16.5261 3.15406 16.8853 3.24091 17.2304 3.44067C17.5745 3.63991 17.8295 3.90771 18.0615 4.22192C18.2839 4.52326 18.5142 4.9089 18.7861 5.36353L20.2128 7.74438L20.2197 7.75513L20.2255 7.76489L21.5751 10.1917L21.9286 10.8352C22.0343 11.0341 22.1262 11.2184 22.2011 11.3899C22.3572 11.7474 22.4619 12.1018 22.4619 12.5002C22.4618 12.8987 22.3574 13.2529 22.2011 13.6106C22.1261 13.7823 22.0336 13.9663 21.9277 14.1653L21.5742 14.8088L20.2255 17.2346L20.2197 17.2454L20.2138 17.2551L18.787 19.636V19.637C18.5152 20.0907 18.285 20.4765 18.0634 20.7776C17.8321 21.0917 17.5772 21.3601 17.2324 21.5598L17.2314 21.5608C16.8861 21.7595 16.5269 21.8456 16.1396 21.8889C15.9539 21.9097 15.7482 21.922 15.5234 21.9299L14.789 21.9456L12.0117 21.9895L11.9999 21.9905L11.9882 21.9895L9.21283 21.9456C8.68356 21.9368 8.23383 21.9305 7.86224 21.8889C7.47451 21.8455 7.11484 21.7588 6.76947 21.5588C6.42544 21.3596 6.1704 21.0927 5.93842 20.7786C5.71583 20.4771 5.48587 20.0909 5.21381 19.636V19.637L3.78705 17.2551L3.78021 17.2454L3.77435 17.2346L2.4267 14.8098C2.16894 14.3469 1.94965 13.9539 1.79974 13.6106C1.64357 13.2528 1.53904 12.8985 1.539 12.5002C1.539 12.1017 1.64342 11.7467 1.79974 11.3889C1.87467 11.2175 1.96746 11.0339 2.07318 10.8352L2.4267 10.1907L3.77435 7.76587L3.78021 7.75513L3.78705 7.74438L5.21283 5.36353L5.59369 4.7356C5.71298 4.54465 5.82558 4.37254 5.93646 4.22192C6.16773 3.9078 6.42265 3.6394 6.76752 3.4397L6.76849 3.43872L6.89935 3.36938C7.20467 3.21924 7.5223 3.14846 7.86127 3.1106C8.23267 3.06914 8.68205 3.06271 9.21088 3.05396L11.9882 3.01001H12.0117Z" fill="#A42143" stroke="#A42143" stroke-width="1.5"/>
<path d="M12 8.75C14.0711 8.75 15.75 10.4289 15.75 12.5C15.75 14.5711 14.0711 16.25 12 16.25C9.92893 16.25 8.25 14.5711 8.25 12.5C8.25 10.4289 9.92893 8.75 12 8.75Z" fill="#E8E8E8" stroke="#A42143" stroke-width="1.5"/>
</svg>
