<svg width="24" height="25" viewBox="0 0 24 25" fill="none" xmlns="http://www.w3.org/2000/svg">
<path d="M16.755 2.5H7.245C6.086 2.5 5.507 2.5 5.039 2.663C4.59793 2.81972 4.19885 3.07586 3.87267 3.41158C3.54649 3.74731 3.30195 4.1536 3.158 4.599C3 5.081 3 5.677 3 6.87V20.874C3 21.732 3.985 22.188 4.608 21.618C4.78279 21.4565 5.01202 21.3668 5.25 21.3668C5.48798 21.3668 5.71721 21.4565 5.892 21.618L6.375 22.06C6.68121 22.3432 7.08293 22.5004 7.5 22.5004C7.91707 22.5004 8.31879 22.3432 8.625 22.06C8.93121 21.7768 9.33293 21.6196 9.75 21.6196C10.1671 21.6196 10.5688 21.7768 10.875 22.06C11.1812 22.3432 11.5829 22.5004 12 22.5004C12.4171 22.5004 12.8188 22.3432 13.125 22.06C13.4312 21.7768 13.8329 21.6196 14.25 21.6196C14.6671 21.6196 15.0688 21.7768 15.375 22.06C15.6812 22.3432 16.0829 22.5004 16.5 22.5004C16.9171 22.5004 17.3188 22.3432 17.625 22.06L18.108 21.618C18.2828 21.4565 18.512 21.3668 18.75 21.3668C18.988 21.3668 19.2172 21.4565 19.392 21.618C20.015 22.188 21 21.732 21 20.874V6.87C21 5.677 21 5.08 20.842 4.6C20.6982 4.15441 20.4537 3.74792 20.1275 3.41202C19.8013 3.07612 19.4022 2.81982 18.961 2.663C18.493 2.5 17.914 2.5 16.755 2.5Z" fill="#A42143" stroke="#A42143" stroke-width="1.5"/>
<path d="M10.5 11.5H17M7 11.5H7.5M7 8H7.5M7 15H7.5M10.5 8H17M10.5 15H17" stroke="white" stroke-width="1.5" stroke-linecap="round"/>
</svg>
